/* XPM */
static const char *clockedge_xpm[] = {
"16 16 2 1",
" 	c None",
"x  c black",
"                ",
"       xxxxxxxxx",
"       x        ",
"       x        ",
"       x        ",
"       x        ",
"       x        ",
"      xxx       ",
"     x x x      ",
"       x        ",
"       x        ",
"       x        ",
"       x        ",
"       x        ",
"xxxxxxxx        ",
"                "};
