/* XPM */
const char * glassptool_xpm[] = {
"16 15 2 1",
" 	c None",
"!	c black",
"    !!!         ",
"  !!   !!       ",
" !       !      ",
" !   !   !      ",
"!    !    !     ",
"!  !!!!!  !     ",
"!    !    !     ",
" !   !   !      ",
" !       !      ",
"  !!   !!!!     ",
"    !!!  !!!    ",
"          !!!   ",
"           !!!  ",
"            !!! ",
"             !!!"};
