/* XPM */
const char * glassntool_xpm[] = {
"16 15 2 1",
" 	c None",
"!	c black",
"    !!!         ",
"  !!   !!       ",
" !       !      ",
" !       !      ",
"!         !     ",
"!  !!!!!  !     ",
"!         !     ",
" !       !      ",
" !       !      ",
"  !!   !!!!     ",
"    !!!  !!!    ",
"          !!!   ",
"           !!!  ",
"            !!! ",
"             !!!"};
