/* XPM */
static const char *tri_cur_xpm[] = {
"16 16 2 1",
" 	c None",
"!	c black",
"!!!!!!!!!!!     ",
" !!!!!!!!!      ",
" !!!!!!!!!      ",
"  !!!!!!!       ",
"   !!!!!        ",
"    !!!         ",
"    !!!         ",
"     !          ",
"                ",
"                ",
"                ",
"                ",
"                ",
"                ",
"                ",
"                "};
