/* XPM */
static const char * ruler_cur_xpm[] = {
"16 16 5 1",
" 	c None",
"!	c black",
"#	c white",
"$	c #FF9933",
"%	c #FF0000",
"!!!!!!!!        ",
"!######!        ",
"!######!!       ",
"!##!!!!! !$$!   ",
"!######! $$$%!  ",
"!######! $$!%%! ",
"!######! !%%!%%!",
"!##!!!!!  !%%!%%",
"!######!   !%%!%",
"!######!    !%%!",
"!######!     !%%",
"!##!!!!!      !%",
"!######!       !",
"!######!        ",
"!######!        ",
"!##!!!!!        "};
